<?xml version="1.0" encoding="iso-8859-1"?>
<!-- Uploaded to: SVG Repo, www.svgrepo.com, Generator: SVG Repo Mixer Tools -->
<svg fill="#FF6F0F" height="800px" width="800px" version="1.1" id="Layer_1" xmlns="http://www.w3.org/2000/svg" xmlns:xlink="http://www.w3.org/1999/xlink" 
	 viewBox="0 0 511.999 511.999" xml:space="preserve">
<g>
	<g>
		<path d="M287.106,357.617c-8.199-8.565-19.246-13.284-31.107-13.284c-11.86,0-22.908,4.718-31.104,13.285
			c-5.607,5.859-10.363,12.457-14.138,19.61c-2.141,4.057-0.586,9.081,3.47,11.221c4.058,2.138,9.081,0.586,11.221-3.47
			c3.054-5.79,6.905-11.132,11.446-15.877c5.034-5.261,11.819-8.159,19.104-8.159c7.285,0,14.07,2.898,19.105,8.159
			c12.594,13.161,19.53,30.443,19.53,48.665c0,26.979-15.699,63.833-38.636,76.652c-22.936-12.819-38.635-49.674-38.635-76.652
			c0-4.587-3.719-8.305-8.305-8.305s-8.305,3.719-8.305,8.305c0,17.322,5.117,37.104,14.039,54.275
			c9.797,18.855,23.239,32.794,37.851,39.249c1.069,0.472,2.212,0.709,3.356,0.709c1.144,0,2.288-0.236,3.356-0.709
			c14.612-6.456,28.054-20.394,37.851-39.249c8.922-17.171,14.039-36.953,14.039-54.275
			C311.245,395.245,302.672,373.884,287.106,357.617z"/>
	</g>
</g>
<g>
	<g>
		<path d="M394.598,224.269c-12.303-21.668-26.664-35.832-32.875-41.403c-0.45-20.796-4.505-43.456-11.802-65.807
			c-1.424-4.361-6.114-6.742-10.472-5.318c-4.361,1.423-6.74,6.113-5.318,10.472c7.214,22.095,11.027,44.401,11.027,64.503
			c0,40.147-15.283,78.228-43.031,107.226c-12.157,12.704-28.538,19.7-46.126,19.7c-17.588,0-33.97-6.995-46.126-19.7
			c-27.749-28.998-43.032-67.078-43.032-107.226c0-31.998,9.575-68.78,26.271-100.912c16.882-32.49,39.104-56.597,62.888-68.334
			c24.093,11.886,46.526,36.402,63.48,69.488c2.093,4.082,7.097,5.696,11.179,3.603c4.083-2.092,5.695-7.097,3.603-11.179
			c-19.472-37.997-46.074-65.937-74.908-78.675c-2.138-0.945-4.574-0.945-6.713,0c-28.486,12.584-54.862,40.086-74.27,77.438
			c-17.223,33.145-27.343,71.056-28.071,104.695c-6.197,5.556-20.581,19.73-32.901,41.426
			c-14.697,25.884-29.089,67.781-14.197,120.395c0.813,2.874,3.106,5.089,6.006,5.803c0.658,0.162,1.324,0.24,1.984,0.24
			c2.251,0,4.44-0.917,6.028-2.593c0.434-0.457,43.837-45.523,91.711-33.052c13.592,9.862,29.864,15.193,47.066,15.193
			c17.201,0,33.473-5.332,47.065-15.193c47.696-12.421,91.281,32.603,91.71,33.052c1.588,1.677,3.777,2.593,6.028,2.593
			c0.661,0,1.327-0.079,1.984-0.24c2.9-0.714,5.192-2.93,6.006-5.803C423.686,292.049,409.294,250.152,394.598,224.269z
			 M137.184,312.224c-8.578,4.94-15.772,10.233-21.155,14.629c-6.292-32.802-1.096-64.306,15.505-93.832
			c6.513-11.583,13.758-20.859,19.723-27.538c3.632,33.431,16.923,64.873,38.492,90.834
			C172.63,296.723,154.814,302.072,137.184,312.224z M395.97,326.853c-5.383-4.396-12.577-9.689-21.155-14.629
			c-17.628-10.152-35.445-15.501-52.564-15.906c21.569-25.961,34.86-57.403,38.492-90.834c5.965,6.678,13.21,15.955,19.723,27.538
			C397.066,262.547,402.262,294.051,395.97,326.853z"/>
	</g>
</g>
<g>
	<g>
		<path d="M284.307,166.803h-48.307v-17.719h48.306c4.587,0,8.305-3.719,8.305-8.305c0-4.587-3.719-8.305-8.305-8.305h-20.001
			v-11.311c0-4.587-3.719-8.305-8.305-8.305c-4.587,0-8.305,3.719-8.305,8.305v11.311h-20c-4.587,0-8.305,3.719-8.305,8.305v34.329
			c0,4.587,3.719,8.305,8.305,8.305h48.307v17.719h-48.307c-4.587,0-8.305,3.719-8.305,8.305s3.719,8.305,8.305,8.305h20.001v11.311
			c0,4.587,3.719,8.305,8.305,8.305c4.587,0,8.305-3.719,8.305-8.305v-11.311h20.001c4.587,0,8.305-3.719,8.305-8.305v-34.329
			C292.612,170.521,288.893,166.803,284.307,166.803z"/>
	</g>
</g>
</svg>